<?xml version="1.0" encoding="UTF-8" standalone="no"?>
<!-- Created with Inkscape (http://www.inkscape.org/) -->

<svg
   width="131.63812mm"
   height="103.00823mm"
   viewBox="0 0 131.63812 103.00823"
   version="1.1"
   id="svg1"
   xml:space="preserve"
   xmlns:inkscape="http://www.inkscape.org/namespaces/inkscape"
   xmlns:sodipodi="http://sodipodi.sourceforge.net/DTD/sodipodi-0.dtd"
   xmlns="http://www.w3.org/2000/svg"
   xmlns:svg="http://www.w3.org/2000/svg"><sodipodi:namedview
     id="namedview1"
     pagecolor="#ffffff"
     bordercolor="#000000"
     borderopacity="0.25"
     inkscape:showpageshadow="2"
     inkscape:pageopacity="0.0"
     inkscape:pagecheckerboard="0"
     inkscape:deskcolor="#d1d1d1"
     inkscape:document-units="mm" /><defs
     id="defs1" /><g
     inkscape:label="Capa 1"
     inkscape:groupmode="layer"
     id="layer1"
     transform="translate(-36.626099,-72.500669)"><path
       style="fill:#000000"
       d="m 163.12687,175.35446 c -0.97224,-0.29512 -2.21427,-1.67961 -2.52884,-2.81891 -0.14995,-0.54309 -0.15177,-1.24492 -0.005,-1.89851 0.12813,-0.5703 0.19469,-1.07518 0.14791,-1.12197 -0.0468,-0.0468 -6.39995,-3.59683 -14.11814,-7.88899 l -14.03307,-7.80393 -0.98135,0.98136 c -0.87487,0.87487 -1.11226,0.98125 -2.18789,0.98042 -2.67862,-0.002 -4.04856,-1.87441 -3.52283,-4.81478 0.0693,-0.38774 -0.8505,-1.03077 -4.87194,-3.40588 -2.72656,-1.61035 -5.14167,-2.98877 -5.36689,-3.06316 -0.22523,-0.0744 -0.82638,0.14765 -1.33591,0.49342 -2.06555,1.40172 -4.91775,0.14005 -5.2479,-2.3214 l -0.13625,-1.01584 h -1.85993 c -1.66553,0 -1.91995,0.0648 -2.43422,0.61967 -0.75941,0.81942 -2.03914,0.84055 -2.78559,0.046 -0.29642,-0.31552 -0.53895,-0.70592 -0.53895,-0.86754 0,-0.16162 -0.25096,-0.30327 -0.5577,-0.31478 -0.30674,-0.0115 -1.200922,-0.10124 -1.987062,-0.19941 -1.41248,-0.17639 -1.43475,-0.16936 -1.88624,0.59585 -1.29345,2.19224 -4.81559,2.08654 -6.24345,-0.18735 -0.49926,-0.79508 -0.5514,-2.33613 -0.12796,-3.78228 0.12175,-0.4158 -0.48446,-0.93433 -3.75936,-3.21564 -2.14748,-1.49594 -8.3104,-5.83843 -13.69537,-9.64998 -5.38497,-3.81155 -11.06721,-7.83004 -12.62721,-8.92998 -1.56,-1.09994 -3.7062,-2.61337 -4.76933,-3.36317 -15.52475,-10.94927 -14.78652,-10.46665 -15.37723,-10.0529 -1.4769,1.03445 -3.66307,-0.14054 -3.66307,-1.96878 0,-1.723706 1.96899,-2.910301 3.48391,-2.099546 0.65471,0.3504 1.29514,1.66635 1.15859,2.380676 -0.1014,0.53046 0.89275,1.2993 9.95394,7.69795 21.65878,15.29456 36.47817,25.80205 38.67097,27.41913 1.17875,0.86926 1.39887,0.94967 1.84208,0.67288 2.2992,-1.43588 5.35569,-0.0693 5.75172,2.57155 l 0.16296,1.08672 1.80527,0.16916 c 1.717422,0.16094 1.836322,0.13812 2.443312,-0.46887 0.35093,-0.35093 0.90693,-0.63805 1.23556,-0.63805 0.70156,0 1.90372,0.87225 1.90372,1.38127 0,0.27854 0.44472,0.35382 2.09019,0.35382 1.86329,0 2.10704,-0.0531 2.24548,-0.48927 0.0854,-0.2691 0.43476,-0.70912 0.77635,-0.97781 0.47595,-0.37438 0.56837,-0.59307 0.39554,-0.93597 -0.12403,-0.2461 -0.65226,-2.14846 -1.17383,-4.22746 -0.85306,-3.40033 -1.00154,-3.78002 -1.47823,-3.78002 -0.76166,0 -1.34851,-0.50814 -1.57479,-1.36357 -0.18556,-0.70151 -0.31425,-0.76767 -2.28785,-1.17622 -1.15235,-0.23855 -2.50385,-0.36866 -3.01029,-0.28982 -1.264332,0.19684 -1.846742,-0.0409 -2.136572,-0.87237 -0.17901,-0.5135 -0.15758,-0.8788 0.0782,-1.33329 0.29712,-0.57269 0.0389,-1.42469 -3.03208,-10.00295 -1.84627,-5.15732 -3.38623,-9.41305 -3.42214,-9.45719 -0.0359,-0.0441 -0.42842,0.10755 -0.87226,0.33707 -2.42709,1.2551 -5.31737,-1.32958 -4.44446,-3.97453 l 0.30718,-0.93078 -12.48505,-12.488031 c -8.76951,-8.77162 -12.5957,-12.44148 -12.85686,-12.33155 -1.5362,0.64663 -1.69082,0.66974 -2.43065,0.36329 -1.081,-0.44776 -1.65846,-1.746039 -1.28285,-2.884148 0.28079,-0.850813 1.26338,-1.597404 2.10235,-1.597404 1.27102,0 2.47506,1.444281 2.30786,2.768351 -0.065,0.51473 1.90386,2.573311 12.60676,13.181251 6.97609,6.91419 12.75307,12.459171 12.83773,12.322191 0.0847,-0.13698 0.57101,-0.36137 1.08078,-0.49863 2.64264,-0.711586 4.94779,1.82217 3.91234,4.30034 l -0.38527,0.92208 3.40161,9.52603 c 3.13332,8.77472 3.44648,9.52623 3.970582,9.52852 0.78207,0.003 1.87253,1.1312 1.70675,1.76517 -0.1542,0.58966 0.3271,0.8146 2.6645,1.24529 1.39214,0.25651 1.67375,0.24158 2.22219,-0.11777 1.81662,-1.19029 3.74631,0.71477 2.51079,2.47874 -0.33154,0.47333 -0.2624,0.89302 0.74361,4.51419 0.61002,2.1958 1.10912,4.0493 1.10912,4.1189 0,0.0696 0.52982,0.12696 1.17738,0.12747 2.27263,0.002 3.64409,1.48183 3.49091,3.7673 l -0.0827,1.23397 5.2841,3.08991 5.28411,3.08991 1.05286,-0.50968 c 1.32007,-0.63903 2.52634,-0.64748 3.54748,-0.0249 1.02718,0.62631 1.53411,1.42336 1.76,2.76728 l 0.18247,1.08561 14.18583,7.88724 14.18582,7.88725 0.78357,-0.55796 c 1.15636,-0.82339 3.03455,-0.8976 4.27337,-0.16883 1.702,1.00125 2.41129,3.41661 1.51328,5.15317 -0.83231,1.60953 -2.98846,2.50503 -4.74656,1.97136 z"
       id="path1"
       inkscape:export-filename="tauro.svg"
       inkscape:export-xdpi="96"
       inkscape:export-ydpi="96" /></g></svg>
